Coordinates
version=1
nRows=9
nColumns=24
inDegrees=yes

Units are S.I. units (second, meters, Newtons, ...)
Angles are in degrees.

endheader
time	pelvis_tilt	pelvis_list	pelvis_rotation	pelvis_tx	pelvis_ty	pelvis_tz	hip_flexion_r	hip_adduction_r	hip_rotation_r	knee_angle_r	ankle_angle_r	subtalar_angle_r	mtp_angle_r	hip_flexion_l	hip_adduction_l	hip_rotation_l	knee_angle_l	ankle_angle_l	subtalar_angle_l	mtp_angle_l	lumbar_extension	lumbar_bending	lumbar_rotation
      2.01500000	      8.67728057	     11.22035458	     -5.06066932	     -0.23770269	      0.99578294	     -0.03175933	     17.97146634	    -13.69936537	     -6.17536706	    -27.84583559	      4.99923429	     -3.11417714	      8.63116715	     -7.23926975	     15.05999966	    -10.54917894	    -12.11358179	     11.56329542	      2.68754468	      6.77808939	    -24.21018171	    -13.54566098	     -0.69644354
      2.02000000	      8.78372085	     11.27410312	     -5.05700918	     -0.23267275	      0.99542339	     -0.03153156	     17.69759314	    -13.66920888	     -6.52253097	    -26.10420026	      4.41946222	     -2.77269023	      8.54126663	     -7.76877295	     15.14424531	    -10.39386556	    -11.96056082	     11.79345122	      2.76082945	      6.54528837	    -24.30918285	    -13.61423064	     -0.73157793
      2.02500000	      8.79993104	     11.33309009	     -4.99488303	     -0.22770148	      0.99490441	     -0.03153015	     17.52108863	    -13.68616231	     -6.94767066	    -24.39500540	      3.85387991	     -2.23988474	      8.42685556	     -8.17258831	     15.22445617	    -10.23309773	    -11.86197585	     12.03523366	      2.80740856	      6.29291289	    -24.31022823	    -13.64172753	     -0.86890146
      2.03000000	      8.92007062	     11.36775828	     -5.05121804	     -0.22246372	      0.99448033	     -0.03120359	     17.19565118	    -13.60914159	     -7.26355804	    -22.62081013	      3.47192035	     -1.71569129	      8.17868730	     -8.75649900	     15.29204856	    -10.22782168	    -11.65073760	     12.25828869	      3.01756505	      6.07343076	    -24.37704174	    -13.69241435	     -0.83690653
      2.03500000	      9.05435219	     11.49333234	     -5.05843827	     -0.21736520	      0.99404176	     -0.03098463	     16.87373483	    -13.65933318	     -7.70036878	    -20.86899547	      2.93317607	     -1.10481979	      7.84793160	     -9.31886401	     15.44984148	    -10.11523321	    -11.48743802	     12.41633288	      3.07535417	      5.73126413	    -24.49834217	    -13.83901643	     -0.88458980
      2.04000000	      9.09493572	     11.60597185	     -4.96430455	     -0.21230930	      0.99345495	     -0.03081480	     16.61045622	    -13.69809336	     -8.18300132	    -19.10703136	      2.30616542	     -0.44348483	      7.60939778	     -9.74745436	     15.56339912	     -9.87160027	    -11.41287012	     12.66493684	      3.09583391	      5.47304304	    -24.53808437	    -13.92958013	     -1.05330797
      2.04500000	      9.12614775	     11.67903155	     -4.84603248	     -0.20745362	      0.99286937	     -0.03059133	     16.33271822	    -13.67887150	     -8.64298633	    -17.32642815	      1.63303501	      0.22180150	      7.43932964	    -10.15423086	     15.62013905	     -9.62426981	    -11.35377345	     12.91526758	      3.15183658	      5.25490220	    -24.59645040	    -13.96852465	     -1.22567850
      2.05000000	      9.02889744	     11.85197685	     -4.68118099	     -0.20281135	      0.99197796	     -0.03040244	     16.26170170	    -13.75956009	     -9.08080031	    -15.66118326	      1.01511060	      0.96240794	      7.39332873	    -10.33724014	     15.75108191	     -9.34882635	    -11.43472394	     13.22396861	      3.22082182	      5.10498893	    -24.54470302	    -14.10185081	     -1.41013430
      2.05500000	      8.88659106	     12.04799085	     -4.30311922	     -0.19844725	      0.99110328	     -0.03020567	     16.14404622	    -13.86913266	     -9.62785625	    -13.94213762	      0.36981312	      1.58282480	      7.34110742	    -10.46390280	     15.84421165	     -8.85418143	    -11.56841931	     13.49759142	      3.23233441	      4.94820472	    -24.52433530	    -14.20557224	     -1.82617950
